<svg aria-hidden="true" style="width:0;height:0;position:absolute;overflow:hidden" xmlns="http://www.w3.org/2000/svg"><defs><symbol id="icon-close-black" viewBox="0 0 32 32"><path d="m26.667 7.289-1.956-1.956-7.822 7.822-7.822-7.822-1.956 1.956 7.822 7.822-7.822 7.822 1.956 1.956 7.822-7.822 7.822 7.822 1.956-1.956-7.822-7.822 7.822-7.822z"/></symbol><symbol id="icon-close_cross" viewBox="0 0 32 32"><path d="m23.76 10.32-1.6-1.52-5.92 6-5.84-6-1.6 1.52 6 5.92-6 6 1.52 1.52 5.92-6 6 6 1.52-1.6-6-5.92 6-5.92z"/></symbol><symbol id="icon-menu_zebra" viewBox="0 0 32 32"><path d="M6.4 11.76V9.6h19.2v2.16H6.4zm0 5.28h19.2v-2.08H6.4v2.08zm0 5.36h19.2v-2.16H6.4v2.16z"/></symbol><symbol id="buy_now_v" viewBox="0 0 7 10" fill="none" xmlns="http://www.w3.org/2000/svg"><path d="m1 1 4.95 4L1 9" stroke="#131313" stroke-width="2" stroke-linecap="round" stroke-linejoin="round"/></symbol></defs></svg>