<svg aria-hidden="true" style="position: absolute; width: 0; height: 0; overflow: hidden;" version="1.1" xmlns="http://www.w3.org/2000/svg" xmlns:xlink="http://www.w3.org/1999/xlink">
<defs>
<symbol id="icon-close-black" viewBox="0 0 32 32">
<path d="M26.667 7.289l-1.956-1.956-7.822 7.822-7.822-7.822-1.956 1.956 7.822 7.822-7.822 7.822 1.956 1.956 7.822-7.822 7.822 7.822 1.956-1.956-7.822-7.822 7.822-7.822z"></path>
</symbol>
<symbol width="7" height="10" viewBox="0 0 7 10" fill="none" xmlns="http://www.w3.org/2000/svg">
<path d="M1 1L5.95 5L1 9" stroke="#131313" stroke-width="2" stroke-linecap="round" stroke-linejoin="round"/>
</symbol>
<symbol id="icon-close_cross" viewBox="0 0 32 32">
<path d="M23.76 10.32l-1.6-1.52-5.92 6-5.84-6-1.6 1.52 6 5.92-6 6 1.52 1.52 5.92-6 6 6 1.52-1.6-6-5.92 6-5.92z"></path>
</symbol>
<symbol id="icon-menu_zebra" viewBox="0 0 32 32">
<path d="M6.4 11.76v-2.16h19.2v2.16h-19.2zM6.4 17.040h19.2v-2.080h-19.2v2.080zM6.4 22.4h19.2v-2.16h-19.2v2.16z"></path>
</symbol>
<symbol id="buy_now_v" width="7" height="10" viewBox="0 0 7 10" fill="none" xmlns="http://www.w3.org/2000/svg">
<path d="M1 1L5.95 5L1 9" stroke="#131313" stroke-width="2" stroke-linecap="round" stroke-linejoin="round"/>
</symbol>
</defs>
</svg>